<svg xmlns="http://www.w3.org/2000/svg" xmlns:xlink="http://www.w3.org/1999/xlink" viewBox="0 0 130.4 51.78"><defs><style>.cls-1{fill:url(#未命名的渐变_19);}.cls-2{fill:url(#未命名的渐变_19-2);}.cls-3{fill:url(#未命名的渐变_19-3);}.cls-4{fill:url(#未命名的渐变_19-4);}.cls-5{fill:url(#未命名的渐变_19-5);}.cls-6{fill:url(#未命名的渐变_19-6);}.cls-7{fill:url(#未命名的渐变_19-7);}.cls-8{fill:url(#未命名的渐变_19-8);}.cls-9{fill:url(#未命名的渐变_19-9);}.cls-10{fill:url(#未命名的渐变_19-10);}</style><linearGradient id="未命名的渐变_19" x1="-6.25" y1="24.08" x2="80.81" y2="89.06" gradientUnits="userSpaceOnUse"><stop offset="0" stop-color="#64bd8b"/><stop offset="1" stop-color="#005992"/></linearGradient><linearGradient id="未命名的渐变_19-2" x1="30.23" y1="-18.11" x2="117.29" y2="46.87" xlink:href="#未命名的渐变_19"/><linearGradient id="未命名的渐变_19-3" x1="3.41" y1="17.39" x2="78.79" y2="73.65" xlink:href="#未命名的渐变_19"/><linearGradient id="未命名的渐变_19-4" x1="47.47" y1="-19.14" x2="122.85" y2="37.12" xlink:href="#未命名的渐变_19"/><linearGradient id="未命名的渐变_19-5" x1="21.91" y1="2.09" x2="97.19" y2="58.27" xlink:href="#未命名的渐变_19"/><linearGradient id="未命名的渐变_19-6" x1="27.49" y1="-3.56" x2="106.13" y2="55.14" xlink:href="#未命名的渐变_19"/><linearGradient id="未命名的渐变_19-7" x1="38.83" y1="-25.67" x2="126.06" y2="39.43" xlink:href="#未命名的渐变_19"/><linearGradient id="未命名的渐变_19-8" x1="26.56" y1="-5.94" x2="106.94" y2="54.06" xlink:href="#未命名的渐变_19"/><linearGradient id="未命名的渐变_19-9" x1="12.61" y1="7.18" x2="95.31" y2="68.9" xlink:href="#未命名的渐变_19"/><linearGradient id="未命名的渐变_19-10" x1="11.98" y1="6.71" x2="95.84" y2="69.3" xlink:href="#未命名的渐变_19"/></defs><title>lgl</title><g id="图层_2" data-name="图层 2"><g id="图层_1-2" data-name="图层 1"><path class="cls-1" d="M37.4,38.84l-2.05,7.82c-.79,3-4,5.13-7.83,5.13H7l3.4-12.95Z"/><path class="cls-2" d="M130.4,38.84l-2.05,7.82c-.79,3-4,5.13-7.83,5.13H100l3.4-12.95Z"/><path class="cls-3" d="M9.52,51.78H0L13.6,0h16L17.35,46.66C16.56,49.64,13.3,51.78,9.52,51.78Z"/><path class="cls-4" d="M102.52,51.78H93L106.6,0h16L110.35,46.66C109.56,49.64,106.3,51.78,102.52,51.78Z"/><polygon class="cls-5" points="55 51.78 39 51.78 52.6 0 68.6 0 55 51.78"/><path class="cls-6" d="M78.52,51.78H69L77.08,21h16L86.35,46.66C85.56,49.64,82.3,51.78,78.52,51.78Z"/><path class="cls-7" d="M98.61,0,96.22,9.1c-.59,2.24-3,3.85-5.87,3.85H65.2L68.6,0Z"/><path class="cls-8" d="M77.08,21,73.67,34h-8l2.05-7.82c.79-3,4-5.13,7.83-5.13Z"/><polygon class="cls-9" points="72.4 38.84 69 51.78 55 51.78 58.4 38.84 72.4 38.84"/><path class="cls-10" d="M72.4,38.84l-2.05,7.82c-.79,3-4,5.13-7.83,5.13H55l3.4-12.95Z"/></g></g></svg>