<svg xmlns="http://www.w3.org/2000/svg" xmlns:xlink="http://www.w3.org/1999/xlink" viewBox="0 0 130.4 51.78"><defs><style>.cls-1{fill:url(#未命名的渐变_19);}.cls-2{fill:url(#未命名的渐变_19-2);}.cls-3{fill:url(#未命名的渐变_19-3);}</style><linearGradient id="未命名的渐变_19" x1="13.47" y1="-16.15" x2="136.14" y2="38.52" gradientUnits="userSpaceOnUse"><stop offset="0" stop-color="#64bd8b"/><stop offset="1" stop-color="#005992"/></linearGradient><linearGradient id="未命名的渐变_19-2" x1="-1.94" y1="18.43" x2="120.73" y2="73.1" xlink:href="#未命名的渐变_19"/><linearGradient id="未命名的渐变_19-3" x1="-43.85" y1="-24.31" x2="167.3" y2="69.78" xlink:href="#未命名的渐变_19"/></defs><title>lgl</title><g id="图层_2" data-name="图层 2"><g id="图层_1-2" data-name="图层 1"><path class="cls-1" d="M112.4,38.84,122.6,0h-16L93,51.78h27.52c3.78,0,7-2.14,7.83-5.13l2.05-7.82Z"/><path class="cls-2" d="M29.6,0h-16L0,51.78H27.52c3.78,0,7-2.14,7.83-5.13l2.05-7.82h-18Z"/><path class="cls-3" d="M52.6,0,39,51.78H78.52c3.78,0,7-2.14,7.83-5.13L93.08,21H75.55c-3.78,0-7,2.14-7.82,5.13L65.67,34h8L72.4,38.84h-14l6.8-25.89H90.35c2.83,0,5.28-1.6,5.87-3.85L98.61,0Z"/></g></g></svg>